<?xml version="1.0" encoding="UTF-8"?>
<svg width="1001px" height="334px" viewBox="0 0 1001 334" version="1.1" xmlns="http://www.w3.org/2000/svg" xmlns:xlink="http://www.w3.org/1999/xlink">
    <!-- Generator: Sketch 50.2 (55047) - http://www.bohemiancoding.com/sketch -->
    <title>Hello</title>
    <desc>Created with Sketch.</desc>
    <defs></defs>
    <g id="Page-1" stroke="none" stroke-width="1" fill="none" fill-rule="evenodd">
        <path d="M261.18235,329.189884 L186.38595,329.189884 L186.38595,198.885555 L75.5844071,198.885555 L75.5844071,329.189884 L0.359375,329.189884 L0.359375,17.1453065 L75.5844071,17.1453065 L75.5844071,141.020146 L186.38595,141.020146 L186.38595,17.1453065 L261.18235,17.1453065 L261.18235,329.189884 Z M417.633271,333.476211 C382.056582,333.476211 353.267043,322.867659 331.26379,301.650236 C309.260537,280.432813 298.259075,252.822002 298.259075,218.816974 L298.259075,212.816117 C298.259075,189.098324 302.652516,168.166972 311.439529,150.021432 C320.226543,131.875892 333.049675,117.838312 349.909311,107.908273 C366.768946,97.978233 386.771604,93.0132876 409.917883,93.0132876 C442.494129,93.0132876 468.211831,103.121773 487.071762,123.339048 C505.931694,143.556323 515.361518,171.738639 515.361518,207.886841 L515.361518,235.96228 L371.769576,235.96228 C374.341385,248.964203 379.984992,259.179846 388.700567,266.609516 C397.416141,274.039186 408.703355,277.753965 422.562547,277.753965 C445.42307,277.753965 463.282585,269.752902 476.14163,253.750536 L509.146345,292.756108 C500.145014,305.186517 487.393319,315.080689 470.89088,322.43892 C454.38844,329.797151 436.636081,333.476211 417.633271,333.476211 Z M409.489251,148.735534 C388.343267,148.735534 375.770168,162.737394 371.769576,190.741535 L444.637129,190.741535 L444.637129,185.16931 C444.922886,173.59617 441.993925,164.630693 435.850159,158.27261 C429.706394,151.914527 420.919512,148.735534 409.489251,148.735534 Z M620.590837,329.189884 L548.151917,329.189884 L548.151917,0 L620.590837,0 L620.590837,329.189884 Z M741.250931,329.189884 L668.812011,329.189884 L668.812011,0 L741.250931,0 L741.250931,329.189884 Z M776.613126,211.101586 C776.613126,187.955306 781.113723,167.345425 790.115054,149.271324 C799.116385,131.197224 812.046675,117.30252 828.90631,107.586798 C845.765946,97.8710759 865.554289,93.0132876 888.271934,93.0132876 C922.991353,93.0132876 950.352131,103.764716 970.355089,125.267895 C990.358046,146.771075 1000.35938,176.024961 1000.35938,213.030433 L1000.35938,215.602229 C1000.35938,251.750431 990.322327,280.432813 970.247931,301.650236 C950.173534,322.867659 922.991351,333.476211 888.700567,333.476211 C855.695687,333.476211 829.192165,323.582039 809.189208,303.793399 C789.18625,284.004759 778.399103,257.179766 776.827442,223.317617 L776.613126,211.101586 Z M848.837729,215.602229 C848.837729,237.033969 852.195318,252.750343 858.910597,262.751822 C865.625875,272.7533 875.555766,277.753965 888.700567,277.753965 C914.418655,277.753965 927.563258,257.965622 928.134771,218.388341 L928.134771,211.101586 C928.134771,169.52401 914.847292,148.735534 888.271934,148.735534 C864.125507,148.735534 851.052341,166.666487 849.052045,202.528933 L848.837729,215.602229 Z" id="Hello" fill="#000000"></path>
    </g>
</svg>
